<?xml version="1.0" encoding="utf-8"?>
<!-- Generator: Adobe Illustrator 26.0.3, SVG Export Plug-In . SVG Version: 6.00 Build 0)  -->
<svg version="1.0" id="katman_1" xmlns="http://www.w3.org/2000/svg" xmlns:xlink="http://www.w3.org/1999/xlink" x="0px" y="0px"
	 viewBox="0 0 800 600" style="enable-background:new 0 0 800 600;" xml:space="preserve">
<style type="text/css">
	.st0{fill:#3B1C52;}
</style>
<path id="Path_1" class="st0" d="M152.4,310.3h25.5v21.1c-7.9,5.7-17.5,8.6-27.2,8.5c-23.1,0-38.4-17.1-38.4-40.4
	c-0.9-21.2,15.6-39.1,36.8-39.9c0.5,0,0.9,0,1.4,0c10.4-0.4,20.5,3.4,28.1,10.6c1,0.8,2.4,0.7,3.2-0.3l9.6-11.4
	c0.8-1,0.7-2.4-0.3-3.3c0,0,0,0,0,0c-11.3-9.6-25.8-14.5-40.6-13.8c-31.5-1.1-57.9,23.6-59,55.1c0,1.1,0,2.3,0,3.4
	c-1.2,30.9,22.8,57,53.8,58.2c1.6,0.1,3.2,0.1,4.8,0c16.7,0,32.8-5.8,45.7-16.4c0.9-0.8,1.4-1.9,1.4-3.1v-43.2c0-1.3-1-2.3-2.3-2.3
	h-42.3c-1.3,0-2.3,1-2.3,2.3l0,0V308C150.1,309.3,151.1,310.3,152.4,310.3L152.4,310.3L152.4,310.3z"/>
<path id="Path_2" class="st0" d="M340.8,279.3c0-21.8-15.8-35.3-41.4-35.3h-47.3c-1.3,0-2.3,1.1-2.3,2.3c0,0,0,0,0,0V353
	c0,1.3,1,2.4,2.3,2.4H267c1.3,0,2.3-1.1,2.3-2.4v-36.5h24.5l26.2,37.1c0.7,1.1,2,1.7,3.2,1.7h17.3c1.1,0,2-0.9,1.9-2
	c0-0.4-0.1-0.8-0.3-1.1l-27.9-39.1C330.2,309.9,341.4,295.5,340.8,279.3z M269.3,299.2v-37.3h28.5c14.5,0,23.1,6.4,23.1,18.6
	c0,11.5-8.9,18.8-22.9,18.8L269.3,299.2z"/>
<path id="Path_3" class="st0" d="M429.7,246.1l-46.6,106.5c-0.4,1,0,2.1,1,2.6c0.2,0.1,0.5,0.2,0.8,0.2h14.4c1.6,0,3-0.9,3.6-2.4
	l10.3-24.2h52.3l10.3,24.2c0.6,1.4,2,2.4,3.6,2.4h15c1.1,0,1.9-0.9,1.9-2c0-0.3-0.1-0.5-0.2-0.8l-46.5-106.5
	c-0.6-1.3-1.8-2.1-3.2-2.1h-13.4C431.5,244,430.3,244.8,429.7,246.1L429.7,246.1z M420.5,311.6l18.8-44.4l18.8,44.4H420.5z"/>
<path id="Path_4" class="st0" d="M645.7,337.5v-91.2c0-1.3-1-2.3-2.3-2.3h-14.9c-1.3,0-2.3,1.1-2.3,2.3V353c0,1.3,1,2.3,2.3,2.3
	h77.6c1.3,0,2.3-1.1,2.3-2.3v-13.1c0-1.3-1-2.4-2.3-2.4L645.7,337.5z"/>
<path id="Path_7" class="st0" d="M545.7,290.3h21.5c1.2,0,2.2,1,2.2,2.2v14.4c0,1.2-1,2.2-2.2,2.2h-21.5c-1.2,0-2.2-1-2.2-2.2
	c0,0,0,0,0,0v-14.4C543.5,291.3,544.5,290.3,545.7,290.3C545.7,290.3,545.7,290.3,545.7,290.3z"/>
<path id="Path_5" class="st0" d="M545.7,244h21.5c1.2,0,2.2,1,2.2,2.2v14.4c0,1.2-1,2.2-2.2,2.2h-21.5c-1.2,0-2.2-1-2.2-2.2
	c0,0,0,0,0,0v-14.4C543.5,245,544.5,244,545.7,244C545.7,244,545.7,244,545.7,244z"/>
<path id="Path_6" class="st0" d="M545.1,273.1h22.7c0.9,0,1.6,0.7,1.6,1.6v3.7c0,0.9-0.7,1.6-1.6,1.6l0,0h-22.7
	c-0.9,0-1.5-0.7-1.6-1.5v-3.7C543.5,273.8,544.2,273.1,545.1,273.1C545.1,273.1,545.1,273.1,545.1,273.1z"/>
<path id="Path_9" class="st0" d="M545.7,336.6h21.5c1.2,0,2.2,1,2.2,2.2v14.4c0,1.2-1,2.2-2.2,2.2h-21.5c-1.2,0-2.2-1-2.2-2.2
	c0,0,0,0,0,0v-14.4C543.5,337.5,544.5,336.6,545.7,336.6C545.7,336.6,545.7,336.6,545.7,336.6z"/>
<path id="Path_8" class="st0" d="M545.1,319.4h22.7c0.9,0,1.6,0.7,1.6,1.6v3.7c0,0.9-0.7,1.6-1.6,1.6l0,0h-22.7
	c-0.9,0-1.5-0.7-1.6-1.5V321C543.5,320.1,544.2,319.4,545.1,319.4C545.1,319.4,545.1,319.4,545.1,319.4z"/>
</svg>
