<?xml version="1.0" encoding="UTF-8" standalone="no"?>
<!-- Created with Inkscape (http://www.inkscape.org/) -->

<svg
   version="1.1"
   id="svg2"
   width="350.38666"
   height="58.333332"
   viewBox="0 0 350.38666 58.333332"
   sodipodi:docname="amobee.eps"
   xmlns:inkscape="http://www.inkscape.org/namespaces/inkscape"
   xmlns:sodipodi="http://sodipodi.sourceforge.net/DTD/sodipodi-0.dtd"
   xmlns="http://www.w3.org/2000/svg"
   xmlns:svg="http://www.w3.org/2000/svg">
  <defs
     id="defs6" />
  <sodipodi:namedview
     id="namedview4"
     pagecolor="#ffffff"
     bordercolor="#000000"
     borderopacity="0.25"
     inkscape:showpageshadow="2"
     inkscape:pageopacity="0.0"
     inkscape:pagecheckerboard="0"
     inkscape:deskcolor="#d1d1d1" />
  <g
     id="g8"
     inkscape:groupmode="layer"
     inkscape:label="ink_ext_XXXXXX"
     transform="matrix(1.3333333,0,0,-1.3333333,0,58.333333)">
    <g
       id="g10"
       transform="scale(0.1)">
      <path
         d="M 816.277,246.918 790.344,206.98 723.891,105.605 c -8.547,-12.9683 -19.965,-12.9683 -28.653,0 -29.343,44.676 -58.597,89.422 -87.773,134.239 -1.231,1.875 -2.524,3.707 -4.473,6.484 -1.586,-5.762 -1.918,-11.793 -0.972,-17.707 0,-48.797 0,-97.605 0,-146.4257 0,-22.3125 0,-44.5469 0,-66.8359 0,-5.71096 -1.809,-7.27346 -7.332,-7.20706 -33.532,0 -67.051,0 -100.543,0 -5.122,0 -6.934,1.11719 -6.934,6.48826 0,135.8864 0,271.7504 0,407.6364 0,4.336 1.164,5.899 5.711,5.825 37.336,0 74.676,0 112.019,0 3.598,0.125 6.911,-1.954 8.364,-5.25 30.812,-50.172 61.644,-100.329 92.5,-150.457 4.347,-7.008 4.285,-7.067 8.433,-0.391 l 87.649,142.168 c 2.199,3.633 4.668,7.133 6.476,10.82 1.227,2.403 3.805,3.797 6.485,3.504 37.597,0 75.14,0 112.734,0 6.102,0 5.703,-3.433 5.703,-7.324 0,-26.317 0,-52.641 0,-78.965 0,-108.051 0,-216.238 0,-324.5781 0,-9.21093 0,-9.26952 -8.875,-9.26952 -32.871,0 -65.676,0 -98.543,0 -6.476,0 -8.097,2.06252 -8.097,8.35942 0,73.9843 0,147.9882 0,222.0192 0,2.649 0,5.25 0,7.848 l -1.493,0.332"
         style="fill:#1cb2d6;fill-opacity:1;fill-rule:nonzero;stroke:none"
         id="path12" />
      <path
         d="m 1616.46,261.051 v 0 c 11.2,0 22.49,0 33.7,0 8.8,0.066 17.53,1.445 25.92,4.082 12.79,3.351 22.25,14.121 23.92,27.226 1.43,15.098 -2.65,27.746 -16.71,35.395 -6.6,3.461 -13.85,5.512 -21.28,6.023 -28.51,2.407 -57.09,0.52 -85.62,1.18 -4.35,0 -4.62,-2.215 -4.53,-5.523 0,-20.934 0,-41.805 0,-62.754 0,-4.332 1.16,-5.953 5.69,-5.821 12.64,0.317 25.74,0.192 38.77,0.192 z m 12.96,-81.488 c -20.3,0 -36.25,0 -51.87,0 -4.41,0 -5.78,-1.301 -5.69,-5.774 0,-21.992 0,-44.023 0,-66.055 0,-4.804 1.54,-6.093 6.47,-6.023 29.43,0 58.85,0 88.29,0 9.91,0.008 19.75,1.894 28.98,5.508 16.76,6.238 26.14,24.07 21.78,41.426 -4.02,17.761 -17.05,25.015 -33.12,28.203 -20.04,4.207 -39.69,2.324 -54.84,2.715 z m 121.68,48.679 c 9.65,-4.215 18.54,-7.515 26.75,-11.918 18.39,-8.765 33.83,-22.672 44.49,-40.008 6.57,-12.105 10.32,-25.535 11.02,-39.273 4.74,-60.4883 -25.48,-99.1328 -80.65,-117.668 -21.63,-7.1172 -44.25,-10.71484 -67.03,-10.625 -73.58,0 -147.09,0 -220.41,-0.39062 -5.64,0 -7.14,1.61328 -7.14,7.17582 0,112.3748 0,224.6168 0,336.7148 0,23.156 0,46.359 0,69.504 0,5.445 1.5,6.805 6.49,6.805 72.42,0 144.83,0 217.25,-0.457 27.08,0.351 53.89,-5.661 78.25,-17.559 37.96,-19.016 59.55,-60.129 53.66,-102.168 -4.35,-36.246 -24.7,-59.582 -55.29,-76.117 l -7.39,-4.016"
         style="fill:#1cb2d6;fill-opacity:1;fill-rule:nonzero;stroke:none"
         id="path14" />
      <path
         d="m 1302.04,211.262 c 0,36.429 -9.55,62.754 -29.39,85.508 -37.53,43.109 -109.1,47.449 -150.13,7.781 -35.34,-34.168 -43.36,-76.5 -29.69,-122.254 15.48,-56.367 73.7,-89.4767 130.05,-73.984 11.26,3.074 21.92,8.015 31.56,14.585 29.52,19.79 47.31,52.915 47.53,88.442 z M 1192.28,0.0507813 C 1128.6,-1.23047 1067.46,24.9414 1024.43,71.875 c -31.555,33.547 -50.996,76.672 -55.227,122.539 -6.398,53.301 7.66,107.039 39.347,150.395 24.16,33.601 57.53,59.492 96.07,74.543 53.05,22.261 112.46,24.058 166.74,5.062 80.78,-27.754 131.15,-84.668 145.81,-169.211 12.44,-71.805 -7.65,-135.601 -58.72,-187.9764 -35.9,-36.7383 -83.44,-59.81644 -134.48,-65.29301 -9.78,-1.367184 -19.91,-1.367184 -31.69,-1.8828087"
         style="fill:#1cb2d6;fill-opacity:1;fill-rule:nonzero;stroke:none"
         id="path16" />
      <path
         d="m 2287.47,218.461 c 0,67.715 0,135.437 0,203.156 0,5.321 1.56,6.942 6.87,6.942 108.04,0 216.28,0 324.65,0 5,0 6.04,-1.809 5.98,-6.485 0,-29.035 0,-58.347 0,-87.058 0,-5.254 -2.41,-5.715 -6.48,-5.715 -31.26,0 -62.43,0 -93.69,0 -32.79,0 -65.52,0.719 -98.34,-0.313 -6.48,0 -12.57,0 -18.79,0.387 -3.51,0 -5.45,-0.777 -5.45,-4.863 0,-18.242 0,-36.453 0,-54.649 0,-4.215 2.2,-4.73 5.59,-4.672 10.81,0 21.57,0 32.41,0 52.17,0 104.36,0 156.56,0 5.69,0 7.77,-1.222 7.71,-7.382 -0.36,-25.411 -0.36,-50.829 0,-76.246 0,-6.473 -1.82,-8.426 -8.37,-8.426 -61.85,0 -123.76,0 -185.6,0 -7.06,0 -8.63,-2.063 -8.43,-8.664 0.49,-16.875 0.49,-33.743 0,-50.657 0,-6.472 1.94,-7.378 7.65,-7.378 69.75,0 139.51,0 209.25,0 8.9,0 8.9,0 8.9,-8.6333 0,-27.6563 0,-55.3633 0,-83.0195 0,-5.51567 -1.37,-7.34379 -7.06,-7.34379 -108.94,0 -217.8,0 -326.68,0 -5.51,0 -6.47,1.75 -6.47,6.94529 0,67.7227 0,135.4493 0,203.1643 l -0.21,0.91"
         style="fill:#1cb2d6;fill-opacity:1;fill-rule:nonzero;stroke:none"
         id="path18" />
      <path
         d="m 1887.5,218.578 c 0,67.492 0,134.981 0,202.461 0,6.102 1.6,7.52 7.51,7.457 107.31,0 214.62,0 321.92,0 7.46,0 8.37,-3.637 7.98,-8.887 -0.9,-12.117 -0.38,-24.304 -0.46,-36.429 0,-16.164 0.14,-32.321 0.4,-48.489 0,-3.89 -1.1,-5.316 -4.94,-5.257 -7.62,0 -15.29,0 -22.95,0 -62.28,0 -124.65,0 -186.95,0 -6.48,0 -7.97,-1.68 -7.84,-7.907 0.38,-16.207 0.38,-32.41 0,-48.554 0,-5.965 1.3,-8.039 7.78,-7.973 61.65,0 123.17,0 184.95,0 8.83,0 8.83,0 8.83,-8.617 0,-25.422 0,-50.824 0,-76.246 0,-5.625 -2.15,-6.946 -7.09,-6.856 l -172.03,0.442 c -6.48,0 -12.58,-0.383 -18.88,0 -2.86,0 -3.49,-1.094 -3.49,-3.567 0,-19.773 0,-39.582 0,-59.375 0,-3.105 1.74,-3.691 4.35,-3.691 4.02,0 8.1,0 12.11,0 h 200.45 c 8.56,0 8.56,0 8.56,-8.8752 0,-27.6875 0,-55.3632 0,-83.0585 0,-5.82036 -1.82,-7.07036 -7.27,-7.07036 -108.86,0 -217.74,0 -326.66,0 -5.77,0 -6.49,2.27346 -6.49,7.14846 0,67.7148 0,135.4416 0,203.1566 l 0.21,0.187"
         style="fill:#1cb2d6;fill-opacity:1;fill-rule:nonzero;stroke:none"
         id="path20" />
      <path
         d="m 233.539,291.84 c -0.68,-0.817 -1.289,-1.68 -1.809,-2.598 -14.792,-37.074 -29.433,-74.226 -44.347,-111.293 -1.938,-4.812 0.453,-4.668 3.824,-4.668 27.617,0 55.297,0 82.918,0 5.254,0 5.445,1.68 3.691,5.828 -3.949,9.524 -7.519,19.446 -11.277,28.852 z M 405.004,8.47656 c -18.473,0 -36.883,0 -55.359,0 -3.61,-0.54687 -7.051,1.71874 -7.969,5.27344 -8.496,21.5156 -17.574,42.832 -25.938,64.2852 -0.593,3.4492 -3.804,5.7812 -7.261,5.3242 -50.606,0 -101.235,0 -151.891,0 -3.371,0.5273 -6.57,-1.6485 -7.316,-5 -8.434,-21.5117 -17.25,-42.9102 -25.934,-64.4922 -0.625,-3.4063 -3.828,-5.72267 -7.258,-5.24611 -37.1288,0 -74.2264,0 -111.31628,0 C 0.03125,8.62109 -1.07031,9.39453 1,14.2578 30.6992,83.8008 60.2344,153.457 89.625,223.246 l 79.48,188 c 1.325,2.348 2.387,4.828 3.168,7.399 2.082,12.054 10.051,12.957 20.493,12.957 29.886,-0.645 59.832,-0.387 89.785,0 4.683,0.625 9.113,-2.301 10.371,-6.864 39.59,-94.008 79.266,-187.957 119.027,-281.867 17.938,-42.441 35.867,-84.8632 53.805,-127.2577 2.855,-6.48049 2.598,-6.99221 -4.801,-6.99221 L 405.004,8.47656"
         style="fill:#1cb2d6;fill-opacity:1;fill-rule:nonzero;stroke:none"
         id="path22" />
    </g>
  </g>
</svg>
