<?xml version="1.0" encoding="UTF-8" standalone="no"?>
<svg
   xmlns:dc="http://purl.org/dc/elements/1.1/"
   xmlns:cc="http://creativecommons.org/ns#"
   xmlns:rdf="http://www.w3.org/1999/02/22-rdf-syntax-ns#"
   xmlns:svg="http://www.w3.org/2000/svg"
   xmlns="http://www.w3.org/2000/svg"
   viewBox="0 0 666.66669 666.66669"
   height="666.66669"
   width="666.66669"
   xml:space="preserve"
   id="svg2"
   version="1.1"><metadata
     id="metadata8"><rdf:RDF><cc:Work
         rdf:about=""><dc:format>image/svg+xml</dc:format><dc:type
           rdf:resource="http://purl.org/dc/dcmitype/StillImage" /></cc:Work></rdf:RDF></metadata><defs
     id="defs6"><clipPath
       id="clipPath18"
       clipPathUnits="userSpaceOnUse"><path
         id="path16"
         d="M 0,500 H 500 V 0 H 0 Z" /></clipPath></defs><g
     transform="matrix(1.3333333,0,0,-1.3333333,0,666.66667)"
     id="g10"><g
       id="g12"><g
         clip-path="url(#clipPath18)"
         id="g14"><g
           transform="translate(132.5513,278.4048)"
           id="g20"><path
             id="path22"
             style="fill:#009adc;fill-opacity:1;fill-rule:nonzero;stroke:none"
             d="m 0,0 h 12.087 v -10.322 h 0.267 c 3.718,7.391 12.75,11.851 22.181,11.851 17.532,0 25.369,-10.449 25.369,-27.908 V -64.994 H 47.418 v 33.645 c 0,15.164 -3.453,22.557 -14.344,23.193 -14.212,0 -20.588,-10.96 -20.588,-26.762 V -64.994 H 0 Z" /></g><g
           transform="translate(303.7461,268.7202)"
           id="g24"><path
             id="path26"
             style="fill:#009adc;fill-opacity:1;fill-rule:nonzero;stroke:none"
             d="m 0,0 h -17.93 v -35.556 c 0,-7.519 4.782,-11.596 10.493,-11.596 3.853,0 6.643,1.146 8.501,2.293 v -10.195 c -2.79,-0.765 -6.639,-1.784 -10.627,-1.784 -12.88,0 -20.852,5.863 -20.852,18.861 V 0 H -45.69 v 9.685 h 15.275 v 15.038 l 12.485,3.823 V 9.685 l 17.93,0 z" /></g><g
           transform="translate(362.7227,216.0869)"
           id="g28"><path
             id="path30"
             style="fill:#009adc;fill-opacity:1;fill-rule:nonzero;stroke:none"
             d="m 0,0 c -4.784,-1.656 -10.228,-4.205 -21.387,-4.205 -24.042,0 -35.063,14.018 -35.063,35.174 0,19.243 12.618,32.878 31.746,32.878 22.578,0 29.882,-15.801 29.882,-36.702 h -48.349 c 0,-12.872 10.495,-21.666 22.317,-21.666 8.233,0 17.798,4.081 20.854,6.501 z m -8.104,36.066 c 0,9.941 -6.111,18.096 -16.868,18.096 -12.223,0 -17.269,-9.684 -18.199,-18.096 z" /></g><g
           transform="translate(376.0049,278.4048)"
           id="g32"><path
             id="path34"
             style="fill:#009adc;fill-opacity:1;fill-rule:nonzero;stroke:none"
             d="m 0,0 h 11.688 v -10.068 h 0.265 c 3.32,6.754 10.492,11.597 17.664,11.597 3.723,0 5.581,-0.382 8.237,-0.891 v -10.706 c -2.258,0.894 -4.782,1.148 -6.908,1.148 -11.156,0 -18.461,-10.196 -18.461,-26.507 V -64.994 H 0 Z" /></g><g
           transform="translate(257.0674,213.4121)"
           id="g36"><path
             id="path38"
             style="fill:#009adc;fill-opacity:1;fill-rule:nonzero;stroke:none"
             d="m 0,0 c -0.266,1.911 -0.531,5.352 -0.531,12.742 v 26.89 c 0,17.715 -7.836,26.89 -27.229,26.89 -8.577,0 -15.974,-2.516 -22.191,-6.048 V 49.732 c 5.364,4.697 13.635,7.106 20.197,7.106 12.487,0 16.736,-5.735 16.736,-16.951 -4.914,0.256 -8.366,0.256 -13.279,0.256 -12.886,0 -31.479,-5.098 -31.479,-21.411 0,-14.145 10.225,-20.261 24.837,-20.261 11.421,0 18.064,5.988 20.986,9.939 h 0.263 V 0 Z m -13.018,25.232 c 0,-9.685 -6.507,-17.077 -18.858,-17.077 -5.712,0 -12.621,3.697 -12.621,10.577 0,11.47 16.737,12.489 23.511,12.489 2.658,0 5.312,-0.253 7.968,-0.253 z" /></g><g
           transform="translate(467.292,213.4121)"
           id="g40"><path
             id="path42"
             style="fill:#009adc;fill-opacity:1;fill-rule:nonzero;stroke:none"
             d="m 0,0 c -0.267,1.911 -0.531,5.352 -0.531,12.742 v 26.89 c 0,17.715 -7.837,26.89 -27.23,26.89 -8.025,0 -14.73,-2.204 -20.652,-5.381 v -9.945 c 5.041,3.497 12.21,5.642 18.661,5.642 12.485,0 16.734,-5.735 16.734,-16.951 -4.913,0.256 -8.365,0.256 -13.282,0.256 -12.883,0 -31.478,-5.098 -31.478,-21.411 0,-14.145 10.229,-20.261 24.839,-20.261 11.42,0 18.066,5.988 20.986,9.939 h 0.265 V 0 Z m -13.018,25.232 c 0,-9.685 -6.506,-17.077 -18.86,-17.077 -5.711,0 -12.618,3.697 -12.618,10.577 0,11.47 16.735,12.489 23.51,12.489 2.655,0 5.313,-0.253 7.968,-0.253 z" /></g><g
           transform="translate(37.7324,259.8804)"
           id="g44"><path
             id="path46"
             style="fill:#009adc;fill-opacity:1;fill-rule:nonzero;stroke:none"
             d="m 0,0 c 4.959,0 9.6,-1.483 13.578,-4.058 -1.914,4.016 -3.001,8.578 -3.001,13.419 0,8.17 3.083,15.549 8.046,20.838 C 13.816,35.323 7.248,38.483 0,38.483 c -14.73,0 -26.67,-13.039 -26.67,-29.122 0,-7.377 2.517,-14.109 6.659,-19.242 C -15.125,-3.826 -7.974,0 0,0" /></g><g
           transform="translate(61.4028,255.8223)"
           id="g48"><path
             id="path50"
             style="fill:#9aca3c;fill-opacity:1;fill-rule:nonzero;stroke:none"
             d="m 0,0 c 3.978,2.575 8.619,4.058 13.579,4.058 7.973,0 15.125,-3.825 20.011,-9.881 4.142,5.133 6.661,11.865 6.661,19.242 0,16.085 -11.942,29.123 -26.672,29.123 -7.247,0 -13.816,-3.161 -18.624,-8.285 C -0.081,28.968 3.003,21.589 3.003,13.419 3.003,8.578 1.915,4.017 0,0" /></g><g
           transform="translate(51.313,255.8223)"
           id="g52"><path
             id="path54"
             style="fill:#005e7f;fill-opacity:1;fill-rule:nonzero;stroke:none"
             d="m 0,0 c 1.836,-1.188 3.528,-2.608 5.045,-4.226 1.517,1.618 3.21,3.038 5.045,4.226 1.915,4.017 3.003,8.578 3.003,13.42 0,8.17 -3.086,15.549 -8.048,20.837 C 0.083,28.969 -3.001,21.59 -3.001,13.42 -3.001,8.578 -1.915,4.017 0,0" /></g><g
           transform="translate(51.311,244.1787)"
           id="g56"><path
             id="path58"
             style="fill:#9aca3c;fill-opacity:1;fill-rule:nonzero;stroke:none"
             d="m 0,0 c -3.978,-2.574 -8.619,-4.058 -13.578,-4.058 -7.973,0 -15.124,3.825 -20.012,9.881 -4.142,-5.133 -6.659,-11.865 -6.659,-19.242 0,-16.085 11.941,-29.123 26.671,-29.123 7.248,0 13.816,3.161 18.623,8.286 -4.962,5.286 -8.046,12.666 -8.046,20.837 0,4.841 1.086,9.402 3.001,13.419" /></g><g
           transform="translate(37.7334,240.1201)"
           id="g60"><path
             id="path62"
             style="fill:#005e7f;fill-opacity:1;fill-rule:nonzero;stroke:none"
             d="m 0,0 c 4.96,0 9.6,1.483 13.578,4.058 1.004,2.105 2.235,4.058 3.658,5.823 -1.423,1.764 -2.654,3.717 -3.658,5.821 C 9.6,18.278 4.96,19.761 0,19.761 c -7.974,0 -15.125,-3.825 -20.011,-9.88 C -15.125,3.826 -7.974,0 0,0" /></g><g
           transform="translate(74.9819,240.1201)"
           id="g64"><path
             id="path66"
             style="fill:#009adc;fill-opacity:1;fill-rule:nonzero;stroke:none"
             d="m 0,0 c -4.96,0 -9.601,1.483 -13.579,4.059 1.915,-4.017 3.003,-8.579 3.003,-13.42 0,-8.17 -3.086,-15.55 -8.048,-20.836 4.808,-5.125 11.376,-8.286 18.624,-8.286 14.73,0 26.67,13.038 26.67,29.122 0,7.377 -2.517,14.109 -6.659,19.242 C 15.124,3.826 7.973,0 0,0" /></g><g
           transform="translate(74.9849,259.8809)"
           id="g68"><path
             id="path70"
             style="fill:#005e7f;fill-opacity:1;fill-rule:nonzero;stroke:none"
             d="m 0,0 c -4.959,0 -9.601,-1.484 -13.579,-4.059 -1.003,-2.104 -2.234,-4.058 -3.656,-5.822 1.422,-1.765 2.653,-3.717 3.656,-5.821 3.978,-2.576 8.62,-4.059 13.579,-4.059 7.973,0 15.124,3.824 20.011,9.88 C 15.124,-3.826 7.973,0 0,0" /></g><g
           transform="translate(61.4028,244.1787)"
           id="g72"><path
             id="path74"
             style="fill:#005e7f;fill-opacity:1;fill-rule:nonzero;stroke:none"
             d="M 0,0 C -1.834,1.187 -3.527,2.608 -5.045,4.226 -6.562,2.608 -8.254,1.187 -10.09,0 c -1.913,-4.017 -3.001,-8.578 -3.001,-13.42 0,-8.17 3.084,-15.55 8.046,-20.836 4.964,5.286 8.048,12.666 8.048,20.836 C 3.003,-8.578 1.915,-4.017 0,0" /></g><g
           transform="translate(472.3213,277.686)"
           id="g76"><path
             id="path78"
             style="fill:#009adc;fill-opacity:1;fill-rule:nonzero;stroke:none"
             d="M 0,0 H -3.074 V 1.32 H 4.497 V 0 H 1.42 V -9.161 H 0 Z" /></g><g
           transform="translate(478.0996,279.0054)"
           id="g80"><path
             id="path82"
             style="fill:#009adc;fill-opacity:1;fill-rule:nonzero;stroke:none"
             d="M 0,0 H 2.343 L 5.449,-8.708 8.498,0 h 2.341 v -10.481 h -1.42 v 9.07 H 9.391 l -3.278,-9.07 h -1.39 l -3.276,9.07 H 1.419 v -9.07 H 0 Z" /></g></g></g></g></svg>